<svg width="23" height="16" viewBox="0 0 23 16" fill="none" xmlns="http://www.w3.org/2000/svg">
<rect x="6" y="3" width="1" height="1" fill="white"/>
<rect x="17" y="3" width="1" height="1" fill="white"/>
<rect x="6" y="11" width="1" height="1" fill="white"/>
<rect x="17" y="11" width="1" height="1" fill="white"/>
<rect x="9" width="1" height="1" fill="white"/>
<rect x="20" width="1" height="1" fill="white"/>
<rect x="9" y="8" width="1" height="1" fill="white"/>
<rect x="20" y="8" width="1" height="1" fill="white"/>
<rect x="20" y="5" width="1" height="1" fill="white"/>
<rect x="9" y="13" width="1" height="1" fill="white"/>
<rect x="20" y="13" width="1" height="1" fill="white"/>
<rect x="5" y="7" width="1" height="1" fill="white"/>
<rect x="16" y="7" width="1" height="1" fill="white"/>
<rect x="5" y="15" width="1" height="1" fill="white"/>
<rect x="16" y="15" width="1" height="1" fill="white"/>
<rect x="2" y="2" width="1" height="1" fill="white"/>
<rect x="13" y="2" width="1" height="1" fill="white"/>
<rect x="2" y="10" width="1" height="1" fill="white"/>
<rect x="2" y="5" width="1" height="1" fill="white"/>
<rect x="13" y="5" width="1" height="1" fill="white"/>
<rect x="1" y="15" width="1" height="1" fill="white"/>
<rect x="12" y="15" width="1" height="1" fill="white"/>
<rect x="10" y="4" width="1" height="1" fill="white"/>
<rect x="22" y="3" width="1" height="1" fill="white"/>
<rect x="13" y="11" width="1" height="1" fill="white"/>
<rect x="22" y="11" width="1" height="1" fill="white"/>
<rect width="1" height="1" fill="white"/>
<rect x="11" width="1" height="1" fill="white"/>
<rect y="8" width="1" height="1" fill="white"/>
<rect x="12" y="8" width="1" height="1" fill="white"/>
</svg>
