<svg width="165" height="38" viewBox="0 0 165 38" fill="none" xmlns="http://www.w3.org/2000/svg">
<path d="M13.3716 4.8254L0.0507655 27.9873C-0.209154 28.7594 0.592264 28.9524 1.02546 28.9524H8.49814C13.2633 20.4811 22.9886 3.21693 23.7684 1.93016C24.5481 0.643386 23.8767 0.107231 23.4435 0H18.2451L15.321 4.8254H13.3716Z" fill="white"/>
<path d="M13.3716 2.89524L14.9961 0H16.9455L15.321 2.89524H13.3716Z" fill="white"/>
<path d="M31.815 6.68V29H25.677V6.68H31.815ZM43.3734 12.849C44.9234 12.849 46.3184 13.19 47.5584 13.872C48.8191 14.5333 49.8007 15.4633 50.5034 16.662C51.2267 17.8607 51.5884 19.2247 51.5884 20.754V21.405C51.5884 22.955 51.2267 24.3293 50.5034 25.528C49.8007 26.7267 48.8191 27.6567 47.5584 28.318C46.3184 28.9793 44.9234 29.31 43.3734 29.31H42.3814C40.8314 29.31 39.426 28.9793 38.1654 28.318C36.9254 27.636 35.9437 26.6957 35.2204 25.497C34.5177 24.2983 34.1664 22.9343 34.1664 21.405V20.754C34.1664 19.2247 34.5177 17.8607 35.2204 16.662C35.9437 15.4633 36.9254 14.5333 38.1654 13.872C39.426 13.19 40.8314 12.849 42.3814 12.849H43.3734ZM42.8774 16.6C42.278 16.6 41.7717 16.817 41.3584 17.251C40.945 17.6643 40.7384 18.1707 40.7384 18.77V23.389C40.7384 23.9883 40.945 24.505 41.3584 24.939C41.7717 25.3523 42.278 25.559 42.8774 25.559C43.4767 25.559 43.983 25.3523 44.3964 24.939C44.8097 24.505 45.0164 23.9883 45.0164 23.389V18.77C45.0164 18.1707 44.8097 17.6643 44.3964 17.251C43.983 16.817 43.4767 16.6 42.8774 16.6ZM61.8264 12.849C62.8184 12.849 63.831 13.0143 64.8644 13.345C65.9184 13.655 66.7967 14.1303 67.4994 14.771C68.202 15.4117 68.5534 16.1867 68.5534 17.096C68.5534 17.282 68.543 17.4577 68.5224 17.623C68.5017 17.7677 68.4914 17.8607 68.4914 17.902H63.4074C63.4074 17.406 63.18 17.0547 62.7254 16.848C62.2914 16.6207 61.7954 16.507 61.2374 16.507C59.708 16.507 58.9434 16.8067 58.9434 17.406C58.9434 17.778 59.1707 18.0363 59.6254 18.181C60.1007 18.305 60.8757 18.429 61.9504 18.553C63.3557 18.7183 64.513 18.925 65.4224 19.173C66.3524 19.421 67.1584 19.9067 67.8404 20.63C68.543 21.3327 68.8944 22.366 68.8944 23.73C68.8944 25.6727 68.1814 27.0883 66.7554 27.977C65.35 28.8657 63.614 29.31 61.5474 29.31H59.9354C58.778 29.31 57.6724 29.1343 56.6184 28.783C55.585 28.411 54.7377 27.853 54.0764 27.109C53.415 26.365 53.0844 25.4557 53.0844 24.381V24.102C53.0844 23.978 53.0947 23.885 53.1154 23.823H58.1374V23.947C58.1374 24.5463 58.406 24.97 58.9434 25.218C59.4807 25.4453 60.1007 25.559 60.8034 25.559C61.4234 25.559 62.0124 25.497 62.5704 25.373C63.149 25.249 63.4384 24.9907 63.4384 24.598C63.4384 24.2053 63.2007 23.9367 62.7254 23.792C62.25 23.6267 61.4647 23.4613 60.3694 23.296C59.0467 23.1307 57.9204 22.9137 56.9904 22.645C56.0604 22.3763 55.2544 21.8907 54.5724 21.188C53.911 20.4647 53.5804 19.4623 53.5804 18.181C53.5804 16.9823 53.942 15.9903 54.6654 15.205C55.4094 14.399 56.3394 13.81 57.4554 13.438C58.5714 13.0453 59.708 12.849 60.8654 12.849H61.8264ZM78.3058 13.159H82.0258V17.561H78.3058V23.42C78.3058 24.2467 78.4608 24.815 78.7708 25.125C79.1014 25.4143 79.5354 25.559 80.0728 25.559C80.3208 25.559 80.6411 25.528 81.0338 25.466C81.4471 25.3833 81.7674 25.2903 81.9948 25.187V28.659C81.5194 28.8657 80.8581 29.031 80.0108 29.155C79.1634 29.279 78.4401 29.341 77.8408 29.341C76.0221 29.341 74.6168 29.0103 73.6248 28.349C72.6534 27.6877 72.1678 26.5613 72.1678 24.97V17.561H70.4318V13.159H72.4158L74.5548 8.106H78.3058V13.159ZM94.1451 7.424C95.8604 7.424 97.3898 7.765 98.7331 8.447C100.097 9.10833 101.172 10.121 101.957 11.485C102.742 12.8283 103.135 14.4817 103.135 16.445H97.0281V15.36C97.0281 14.4093 96.7284 13.655 96.1291 13.097C95.5504 12.539 94.8168 12.26 93.9281 12.26H93.7731C92.9051 12.26 92.1714 12.5597 91.5721 13.159C90.9728 13.7583 90.6731 14.492 90.6731 15.36V21.343C90.6731 22.211 90.9728 22.9447 91.5721 23.544C92.1714 24.1433 92.9051 24.443 93.7731 24.443H94.2071C95.0958 24.443 95.8294 24.1743 96.4081 23.637C97.0074 23.079 97.3071 22.3143 97.3071 21.343V20.32H103.135C103.135 22.1387 102.753 23.73 101.988 25.094C101.244 26.458 100.211 27.5017 98.8881 28.225C97.5654 28.9483 96.0671 29.31 94.3931 29.31H93.5251C91.6858 29.31 90.0118 28.938 88.5031 28.194C87.0151 27.45 85.8371 26.3753 84.9691 24.97C84.1011 23.5647 83.6671 21.9113 83.6671 20.01V16.724C83.6671 14.926 84.1011 13.3243 84.9691 11.919C85.8578 10.493 87.0358 9.38733 88.5031 8.602C89.9704 7.81667 91.5618 7.424 93.2771 7.424H94.1451ZM113.88 12.849C115.43 12.849 116.825 13.19 118.065 13.872C119.326 14.5333 120.308 15.4633 121.01 16.662C121.734 17.8607 122.095 19.2247 122.095 20.754V21.405C122.095 22.955 121.734 24.3293 121.01 25.528C120.308 26.7267 119.326 27.6567 118.065 28.318C116.825 28.9793 115.43 29.31 113.88 29.31H112.888C111.338 29.31 109.933 28.9793 108.672 28.318C107.432 27.636 106.451 26.6957 105.727 25.497C105.025 24.2983 104.673 22.9343 104.673 21.405V20.754C104.673 19.2247 105.025 17.8607 105.727 16.662C106.451 15.4633 107.432 14.5333 108.672 13.872C109.933 13.19 111.338 12.849 112.888 12.849H113.88ZM113.384 16.6C112.785 16.6 112.279 16.817 111.865 17.251C111.452 17.6643 111.245 18.1707 111.245 18.77V23.389C111.245 23.9883 111.452 24.505 111.865 24.939C112.279 25.3523 112.785 25.559 113.384 25.559C113.984 25.559 114.49 25.3523 114.903 24.939C115.317 24.505 115.523 23.9883 115.523 23.389V18.77C115.523 18.1707 115.317 17.6643 114.903 17.251C114.49 16.817 113.984 16.6 113.384 16.6ZM135.092 29L134.534 27.171C133.398 28.597 132.065 29.31 130.535 29.31C129.254 29.31 128.097 29.0103 127.063 28.411C126.051 27.8117 125.245 26.9127 124.645 25.714C124.067 24.4947 123.777 23.0067 123.777 21.25V20.909C123.777 19.1523 124.036 17.6747 124.552 16.476C125.09 15.2567 125.803 14.3473 126.691 13.748C127.601 13.1487 128.624 12.849 129.76 12.849C131.703 12.849 133.067 13.5 133.852 14.802V6.68H139.99V29H135.092ZM131.93 16.724C131.393 16.724 130.938 16.941 130.566 17.375C130.194 17.7883 130.008 18.2947 130.008 18.894V23.389C130.008 23.9883 130.194 24.505 130.566 24.939C130.938 25.3523 131.393 25.559 131.93 25.559C132.468 25.559 132.922 25.3523 133.294 24.939C133.666 24.505 133.852 23.9883 133.852 23.389V18.894C133.852 18.2947 133.666 17.7883 133.294 17.375C132.922 16.941 132.468 16.724 131.93 16.724ZM151.602 12.849C153.194 12.849 154.558 13.159 155.694 13.779C156.852 14.3783 157.73 15.2153 158.329 16.29C158.949 17.3647 159.259 18.5943 159.259 19.979V21.901H148.936V23.389C148.936 24.0917 149.153 24.629 149.587 25.001C150.042 25.373 150.621 25.559 151.323 25.559C152.047 25.559 152.594 25.342 152.966 24.908C153.359 24.4533 153.555 23.8333 153.555 23.048H159.228C159.228 24.226 158.918 25.2903 158.298 26.241C157.699 27.1917 156.81 27.946 155.632 28.504C154.475 29.0413 153.101 29.31 151.509 29.31H151.044C149.391 29.31 147.903 29.0103 146.58 28.411C145.278 27.791 144.245 26.9023 143.48 25.745C142.736 24.567 142.364 23.172 142.364 21.56V20.599C142.364 18.987 142.716 17.6023 143.418 16.445C144.142 15.267 145.144 14.3783 146.425 13.779C147.707 13.159 149.174 12.849 150.827 12.849H151.602ZM151.075 16.6C150.476 16.6 149.97 16.817 149.556 17.251C149.143 17.6643 148.936 18.1707 148.936 18.77V19.204H153.214V18.77C153.214 18.1707 153.008 17.6643 152.594 17.251C152.181 16.817 151.675 16.6 151.075 16.6Z" fill="white"/>
</svg>
